<svg xmlns="http://www.w3.org/2000/svg" viewBox="0 0 32 32">
  <circle cx="16" cy="16" r="16" fill="#F7931A"/>
  <path d="M23.189 14.123c.338-2.261-1.381-3.477-3.733-4.288l.763-3.059-1.861-.463-.743 2.978c-.489-.122-.992-.236-1.49-.349l.75-3.007-1.862-.462-.763 3.059c-.405-.093-.801-.183-1.187-.278l.001-.005-2.568-.641-.496 1.988s1.381.317 1.352.336c.754.188.89.689.867 1.086l-.868 3.483c.052.013.12.032.194.057l-.195-.048-.112.449-.001.002-.001.002c-.105.263-.373.658-1.218.448.02.029-1.352-.337-1.352-.337l-.925 2.134 2.424.604c.451.113.893.23 1.325.34l-.772 3.101 1.861.464.764-3.062c.508.138.998.267 1.478.388l-.759 3.045 1.862.464.772-3.1c3.174.601 5.564.359 6.568-2.513.809-2.313-.04-3.647-1.71-4.522.121-.28.243-.561.36-.841zm-4.015 6.541c-.575 2.31-4.469 1.062-5.731.748l1.023-4.1c1.261.314 5.305.934 4.708 3.352zm.575-6.574c-.524 2.103-3.771 1.036-4.823.774l.928-3.722c1.052.262 4.434.752 3.895 2.948z" fill="#FFF"/>
</svg>
