<svg xmlns="http://www.w3.org/2000/svg" viewBox="0 0 32 32">
  <circle cx="16" cy="16" r="16" fill="#000"/>
  <path d="M7.6 10.3c-.2-.2-.2-.5 0-.7l2-2c.2-.2.5-.2.7 0l14.1 14.1c.2.2.2.5 0 .7l-2 2c-.2.2-.5.2-.7 0L7.6 10.3zm0 11.4c-.2-.2-.2-.5 0-.7l2-2c.2-.2.5-.2.7 0l14.1 14.1c.2.2.2.5 0 .7l-2 2c-.2.2-.5.2-.7 0L7.6 21.7z" fill="url(#sol-gradient)"/>
  <defs>
    <linearGradient id="sol-gradient" x1="24.4" y1="21.7" x2="7.6" y2="10.3" gradientUnits="userSpaceOnUse">
      <stop offset="0" stop-color="#00FFA3"/>
      <stop offset="1" stop-color="#DC1FFF"/>
    </linearGradient>
  </defs>
</svg>
